<svg width="3333" height="1059" viewBox="0 0 3333 1059" fill="none" xmlns="http://www.w3.org/2000/svg">
<rect width="3333" height="1059" rx="100" fill="#FFF96B"/>
<path d="M1242 662C1233.2 662 1226.4 659.733 1221.6 655.2C1217.07 650.4 1214.8 643.6 1214.8 634.8V407.2C1214.8 398.4 1217.07 391.733 1221.6 387.2C1226.4 382.4 1233.2 380 1242 380H1319.6C1366.8 380 1403.2 392.133 1428.8 416.4C1454.67 440.667 1467.6 475.467 1467.6 520.8C1467.6 543.467 1464.27 563.6 1457.6 581.2C1451.2 598.533 1441.6 613.2 1428.8 625.2C1416.27 637.2 1400.8 646.4 1382.4 652.8C1364.27 658.933 1343.33 662 1319.6 662H1242ZM1266 619.6H1316.4C1332.93 619.6 1347.2 617.6 1359.2 613.6C1371.47 609.333 1381.6 603.2 1389.6 595.2C1397.87 586.933 1404 576.667 1408 564.4C1412 551.867 1414 537.333 1414 520.8C1414 487.733 1405.87 463.067 1389.6 446.8C1373.33 430.533 1348.93 422.4 1316.4 422.4H1266V619.6ZM1631.09 666C1608.95 666 1589.89 661.867 1573.89 653.6C1557.89 645.333 1545.49 633.6 1536.69 618.4C1528.15 603.2 1523.89 585.2 1523.89 564.4C1523.89 544.133 1528.02 526.4 1536.29 511.2C1544.82 496 1556.42 484.133 1571.09 475.6C1586.02 466.8 1602.95 462.4 1621.89 462.4C1635.75 462.4 1648.15 464.667 1659.09 469.2C1670.29 473.733 1679.75 480.267 1687.49 488.8C1695.49 497.333 1701.49 507.733 1705.49 520C1709.75 532 1711.89 545.6 1711.89 560.8C1711.89 565.6 1710.15 569.333 1706.69 572C1703.49 574.4 1698.82 575.6 1692.69 575.6H1564.29V546.8H1676.69L1670.29 552.8C1670.29 540.533 1668.42 530.267 1664.69 522C1661.22 513.733 1656.02 507.467 1649.09 503.2C1642.42 498.667 1634.02 496.4 1623.89 496.4C1612.69 496.4 1603.09 499.067 1595.09 504.4C1587.35 509.467 1581.35 516.8 1577.09 526.4C1573.09 535.733 1571.09 546.933 1571.09 560V562.8C1571.09 584.667 1576.15 601.067 1586.29 612C1596.69 622.667 1611.89 628 1631.89 628C1638.82 628 1646.55 627.2 1655.09 625.6C1663.89 623.733 1672.15 620.667 1679.89 616.4C1685.49 613.2 1690.42 611.867 1694.69 612.4C1698.95 612.667 1702.29 614.133 1704.69 616.8C1707.35 619.467 1708.95 622.8 1709.49 626.8C1710.02 630.533 1709.22 634.4 1707.09 638.4C1705.22 642.4 1701.89 645.867 1697.09 648.8C1687.75 654.667 1676.95 659.067 1664.69 662C1652.69 664.667 1641.49 666 1631.09 666ZM1796.28 737.2C1788.28 737.2 1782.15 735.067 1777.88 730.8C1773.62 726.533 1771.48 720.267 1771.48 712V488.4C1771.48 480.133 1773.62 473.867 1777.88 469.6C1782.15 465.333 1788.15 463.2 1795.88 463.2C1803.88 463.2 1810.02 465.333 1814.28 469.6C1818.55 473.867 1820.68 480.133 1820.68 488.4V519.6L1816.28 507.6C1820.28 494 1828.42 483.067 1840.68 474.8C1853.22 466.533 1867.75 462.4 1884.28 462.4C1901.35 462.4 1916.28 466.533 1929.08 474.8C1942.15 483.067 1952.28 494.8 1959.48 510C1966.68 524.933 1970.28 542.933 1970.28 564C1970.28 584.8 1966.68 602.933 1959.48 618.4C1952.28 633.6 1942.28 645.333 1929.48 653.6C1916.68 661.867 1901.62 666 1884.28 666C1868.02 666 1853.75 662 1841.48 654C1829.22 645.733 1820.95 635.067 1816.68 622H1821.48V712C1821.48 720.267 1819.22 726.533 1814.68 730.8C1810.42 735.067 1804.28 737.2 1796.28 737.2ZM1870.28 628C1880.15 628 1888.82 625.6 1896.28 620.8C1903.75 616 1909.48 608.933 1913.48 599.6C1917.75 590 1919.88 578.133 1919.88 564C1919.88 542.667 1915.35 526.8 1906.28 516.4C1897.22 505.733 1885.22 500.4 1870.28 500.4C1860.42 500.4 1851.75 502.8 1844.28 507.6C1836.82 512.133 1830.95 519.2 1826.68 528.8C1822.68 538.133 1820.68 549.867 1820.68 564C1820.68 585.067 1825.22 601.067 1834.28 612C1843.35 622.667 1855.35 628 1870.28 628ZM2095.73 666C2081.59 666 2068.93 663.333 2057.73 658C2046.79 652.4 2038.13 644.933 2031.73 635.6C2025.59 626.267 2022.53 615.733 2022.53 604C2022.53 589.6 2026.26 578.267 2033.73 570C2041.19 561.467 2053.33 555.333 2070.13 551.6C2086.93 547.867 2109.46 546 2137.73 546H2157.73V574.8H2138.13C2121.59 574.8 2108.39 575.6 2098.53 577.2C2088.66 578.8 2081.59 581.6 2077.33 585.6C2073.33 589.333 2071.33 594.667 2071.33 601.6C2071.33 610.4 2074.39 617.6 2080.53 623.2C2086.66 628.8 2095.19 631.6 2106.13 631.6C2114.93 631.6 2122.66 629.6 2129.33 625.6C2136.26 621.333 2141.73 615.6 2145.73 608.4C2149.73 601.2 2151.73 592.933 2151.73 583.6V537.6C2151.73 524.267 2148.79 514.667 2142.93 508.8C2137.06 502.933 2127.19 500 2113.33 500C2105.59 500 2097.19 500.933 2088.13 502.8C2079.33 504.667 2069.99 507.867 2060.13 512.4C2055.06 514.8 2050.53 515.467 2046.53 514.4C2042.79 513.333 2039.86 511.2 2037.73 508C2035.59 504.533 2034.53 500.8 2034.53 496.8C2034.53 492.8 2035.59 488.933 2037.73 485.2C2039.86 481.2 2043.46 478.267 2048.53 476.4C2060.79 471.333 2072.53 467.733 2083.73 465.6C2095.19 463.467 2105.59 462.4 2114.93 462.4C2134.13 462.4 2149.86 465.333 2162.13 471.2C2174.66 477.067 2183.99 486 2190.13 498C2196.26 509.733 2199.33 524.933 2199.33 543.6V639.6C2199.33 647.867 2197.33 654.267 2193.33 658.8C2189.33 663.067 2183.59 665.2 2176.13 665.2C2168.66 665.2 2162.79 663.067 2158.53 658.8C2154.53 654.267 2152.53 647.867 2152.53 639.6V620.4H2155.73C2153.86 629.733 2150.13 637.867 2144.53 644.8C2139.19 651.467 2132.39 656.667 2124.13 660.4C2115.86 664.133 2106.39 666 2095.73 666ZM2336.88 666C2314.74 666 2298.08 659.733 2286.88 647.2C2275.68 634.4 2270.08 615.733 2270.08 591.2V402C2270.08 393.733 2272.21 387.467 2276.48 383.2C2280.74 378.933 2286.88 376.8 2294.88 376.8C2302.88 376.8 2309.01 378.933 2313.28 383.2C2317.81 387.467 2320.08 393.733 2320.08 402V588.8C2320.08 601.067 2322.61 610.133 2327.68 616C2333.01 621.867 2340.48 624.8 2350.08 624.8C2352.21 624.8 2354.21 624.8 2356.08 624.8C2357.94 624.533 2359.81 624.267 2361.68 624C2365.41 623.467 2367.94 624.533 2369.28 627.2C2370.61 629.6 2371.28 634.667 2371.28 642.4C2371.28 649.067 2369.94 654.267 2367.28 658C2364.61 661.733 2360.21 664 2354.08 664.8C2351.41 665.067 2348.61 665.333 2345.68 665.6C2342.74 665.867 2339.81 666 2336.88 666ZM2462.33 737.2C2456.47 737.2 2451.67 735.6 2447.93 732.4C2444.2 729.467 2441.93 725.467 2441.13 720.4C2440.6 715.333 2441.53 710 2443.93 704.4L2471.13 644V664.8L2398.33 496.4C2395.93 490.533 2395.13 485.067 2395.93 480C2396.73 474.933 2399.13 470.933 2403.13 468C2407.4 464.8 2413.13 463.2 2420.33 463.2C2426.47 463.2 2431.4 464.667 2435.13 467.6C2438.87 470.267 2442.2 475.467 2445.13 483.2L2499.13 618H2487.13L2542.33 482.8C2545.27 475.333 2548.73 470.267 2552.73 467.6C2556.73 464.667 2562.07 463.2 2568.73 463.2C2574.6 463.2 2579.27 464.8 2582.73 468C2586.2 470.933 2588.33 474.933 2589.13 480C2589.93 484.8 2589 490.133 2586.33 496L2489.13 718C2485.67 725.467 2481.93 730.533 2477.93 733.2C2473.93 735.867 2468.73 737.2 2462.33 737.2ZM2652.16 662C2647.09 662 2642.82 660.8 2639.36 658.4C2636.16 655.733 2634.02 652.4 2632.96 648.4C2631.89 644.4 2631.89 640.133 2632.96 635.6C2634.29 630.8 2636.82 626.267 2640.56 622L2744.16 492V504H2649.76C2643.62 504 2638.82 502.4 2635.36 499.2C2632.16 495.733 2630.56 491.067 2630.56 485.2C2630.56 479.067 2632.16 474.4 2635.36 471.2C2638.82 468 2643.62 466.4 2649.76 466.4H2768.16C2774.02 466.4 2778.82 467.733 2782.56 470.4C2786.29 472.8 2788.69 476 2789.76 480C2791.09 484 2791.22 488.267 2790.16 492.8C2789.09 497.333 2786.69 501.6 2782.96 505.6L2677.36 637.6V624.4H2777.36C2790.16 624.4 2796.56 630.667 2796.56 643.2C2796.56 649.067 2794.82 653.733 2791.36 657.2C2788.16 660.4 2783.49 662 2777.36 662H2652.16ZM2942.1 666C2919.97 666 2900.9 661.867 2884.9 653.6C2868.9 645.333 2856.5 633.6 2847.7 618.4C2839.17 603.2 2834.9 585.2 2834.9 564.4C2834.9 544.133 2839.04 526.4 2847.3 511.2C2855.84 496 2867.44 484.133 2882.1 475.6C2897.04 466.8 2913.97 462.4 2932.9 462.4C2946.77 462.4 2959.17 464.667 2970.1 469.2C2981.3 473.733 2990.77 480.267 2998.5 488.8C3006.5 497.333 3012.5 507.733 3016.5 520C3020.77 532 3022.9 545.6 3022.9 560.8C3022.9 565.6 3021.17 569.333 3017.7 572C3014.5 574.4 3009.84 575.6 3003.7 575.6H2875.3V546.8H2987.7L2981.3 552.8C2981.3 540.533 2979.44 530.267 2975.7 522C2972.24 513.733 2967.04 507.467 2960.1 503.2C2953.44 498.667 2945.04 496.4 2934.9 496.4C2923.7 496.4 2914.1 499.067 2906.1 504.4C2898.37 509.467 2892.37 516.8 2888.1 526.4C2884.1 535.733 2882.1 546.933 2882.1 560V562.8C2882.1 584.667 2887.17 601.067 2897.3 612C2907.7 622.667 2922.9 628 2942.9 628C2949.84 628 2957.57 627.2 2966.1 625.6C2974.9 623.733 2983.17 620.667 2990.9 616.4C2996.5 613.2 3001.44 611.867 3005.7 612.4C3009.97 612.667 3013.3 614.133 3015.7 616.8C3018.37 619.467 3019.97 622.8 3020.5 626.8C3021.04 630.533 3020.24 634.4 3018.1 638.4C3016.24 642.4 3012.9 645.867 3008.1 648.8C2998.77 654.667 2987.97 659.067 2975.7 662C2963.7 664.667 2952.5 666 2942.1 666ZM3108.1 665.2C3099.83 665.2 3093.43 663.067 3088.9 658.8C3084.63 654.267 3082.5 647.867 3082.5 639.6V488.4C3082.5 480.133 3084.63 473.867 3088.9 469.6C3093.17 465.333 3099.17 463.2 3106.9 463.2C3114.63 463.2 3120.63 465.333 3124.9 469.6C3129.17 473.867 3131.3 480.133 3131.3 488.4V513.6H3127.3C3131.03 497.6 3138.37 485.467 3149.3 477.2C3160.23 468.933 3174.77 464 3192.9 462.4C3198.5 461.867 3202.9 463.333 3206.1 466.8C3209.57 470 3211.57 475.067 3212.1 482C3212.63 488.667 3211.03 494.133 3207.3 498.4C3203.83 502.4 3198.5 504.8 3191.3 505.6L3182.5 506.4C3166.23 508 3153.97 513.067 3145.7 521.6C3137.43 529.867 3133.3 541.6 3133.3 556.8V639.6C3133.3 647.867 3131.17 654.267 3126.9 658.8C3122.63 663.067 3116.37 665.2 3108.1 665.2Z" fill="black"/>
<path d="M346.016 192.574C295.953 206.362 246.232 221.365 196.897 237.568C192.388 239.022 188.38 241.715 185.331 245.341C182.282 248.966 180.316 253.376 179.656 258.067C150.536 476.57 217.816 635.992 298.079 741.012C332.047 785.934 372.569 825.499 418.29 858.384C436.476 871.209 452.561 880.46 465.228 886.399C471.536 889.378 476.669 891.445 480.629 892.602C482.375 893.132 484.147 893.57 485.938 893.916C487.711 893.568 489.466 893.13 491.194 892.602C495.189 891.41 500.34 889.343 506.647 886.399C519.262 880.46 535.399 871.156 553.586 858.384C599.306 825.499 639.829 785.934 673.796 741.012C754.059 636.044 821.339 476.57 792.219 258.067C791.56 253.376 789.593 248.966 786.544 245.341C783.495 241.715 779.487 239.022 774.979 237.568C740.761 226.372 682.995 208.133 625.859 192.627C567.515 176.806 513.848 165.084 485.938 165.084C458.08 165.084 404.361 176.753 346.016 192.574ZM332.035 138.435C389.065 122.929 449.67 109 485.938 109C522.206 109 582.811 122.929 639.841 138.435C698.185 154.204 757.003 172.863 791.589 184.164C806.049 188.94 818.869 197.697 828.576 209.431C838.283 221.165 844.483 235.399 846.464 250.498C877.791 485.821 805.097 660.223 716.897 775.598C679.481 824.94 634.887 868.4 584.598 904.533C567.227 917.067 548.795 928.059 529.512 937.385C514.795 944.323 498.973 950 485.938 950C472.902 950 457.134 944.323 442.363 937.385C423.08 928.059 404.649 917.067 387.278 904.533C336.989 868.4 292.394 824.94 254.978 775.598C166.778 660.223 94.0843 485.821 125.412 250.498C127.393 235.399 133.593 221.165 143.3 209.431C153.006 197.697 165.826 188.94 180.287 184.164C230.497 167.713 281.095 152.465 332.035 138.435Z" fill="black"/>
<path d="M539.516 776.879V667.537L514.837 608.112C548.751 602.202 580.007 585.949 604.322 561.58C669.756 496.146 669.756 389.678 604.322 324.244C538.888 258.81 432.42 258.81 366.986 324.244C301.552 389.678 301.552 496.146 366.986 561.58C391.512 586.162 423.094 602.482 457.333 608.266L432.723 667.533L432.718 776.876C432.718 783.888 434.099 790.832 436.782 797.311C439.465 803.789 443.398 809.676 448.357 814.635C453.315 819.593 459.202 823.527 465.68 826.211C472.159 828.895 479.103 830.276 486.115 830.276C493.127 830.276 500.071 828.895 506.55 826.212C513.029 823.529 518.916 819.596 523.874 814.637C528.833 809.679 532.767 803.792 535.45 797.314C538.134 790.835 539.515 783.891 539.516 776.879ZM388.562 345.82C442.097 292.285 529.21 292.285 582.746 345.82C636.281 399.355 636.281 486.469 582.746 540.004C529.21 593.54 442.097 593.54 388.562 540.004C335.026 486.469 335.026 399.355 388.562 345.82ZM486.117 799.762C480.05 799.755 474.233 797.342 469.942 793.052C465.652 788.761 463.239 782.944 463.232 776.877V673.62L486.116 618.514L509.002 673.621L509.003 776.879C508.996 782.946 506.582 788.763 502.292 793.053C498.001 797.343 492.184 799.756 486.117 799.762Z" fill="black"/>
<path d="M485.938 341C489.419 341 492.757 342.382 495.219 344.842C497.68 347.301 499.063 350.638 499.063 354.116V459.047C499.063 462.525 497.68 465.861 495.219 468.321C492.757 470.781 489.419 472.163 485.938 472.163C482.457 472.163 479.118 470.781 476.657 468.321C474.196 465.861 472.813 462.525 472.813 459.047V354.116C472.813 350.638 474.196 347.301 476.657 344.842C479.118 342.382 482.457 341 485.938 341ZM485.938 529C490.579 529 495.03 527.157 498.312 523.878C501.594 520.598 503.438 516.15 503.438 511.512C503.438 506.873 501.594 502.425 498.312 499.146C495.03 495.866 490.579 494.023 485.938 494.023C481.296 494.023 476.845 495.866 473.563 499.146C470.282 502.425 468.438 506.873 468.438 511.512C468.438 516.15 470.282 520.598 473.563 523.878C476.845 527.157 481.296 529 485.938 529Z" fill="black"/>
</svg>
