<svg width="737" height="841" viewBox="0 0 737 841" fill="none" xmlns="http://www.w3.org/2000/svg">
<path d="M228.579 83.5744C178.515 97.3625 128.794 112.365 79.4588 128.568C74.9505 130.022 70.9426 132.715 67.8936 136.341C64.8446 139.966 62.8779 144.376 62.2183 149.067C33.0987 367.57 100.379 526.992 180.642 632.012C214.609 676.934 255.131 716.499 300.852 749.384C319.039 762.209 335.123 771.46 347.79 777.399C354.098 780.378 359.231 782.445 363.191 783.602C364.937 784.132 366.709 784.57 368.5 784.916C370.274 784.568 372.028 784.13 373.756 783.602C377.751 782.41 382.902 780.343 389.21 777.399C401.825 771.46 417.961 762.156 436.148 749.384C481.869 716.499 522.391 676.934 556.358 632.012C636.621 527.044 703.901 367.57 674.782 149.067C674.122 144.376 672.155 139.966 669.106 136.341C666.058 132.715 662.049 130.022 657.541 128.568C623.323 117.372 565.557 99.1329 508.421 83.6269C450.077 67.8056 396.411 56.0842 368.5 56.0842C340.642 56.0842 286.923 67.7531 228.579 83.5744ZM214.597 29.435C271.627 13.9291 332.232 0 368.5 0C404.768 0 465.373 13.9291 522.403 29.435C580.747 45.2037 639.565 63.8634 674.151 75.1644C688.611 79.9397 701.431 88.6974 711.138 100.431C720.845 112.165 727.045 126.399 729.026 141.498C760.353 376.821 687.66 551.223 599.46 666.598C562.043 715.94 517.449 759.4 467.16 795.533C449.789 808.067 431.357 819.059 412.074 828.385C397.357 835.323 381.535 841 368.5 841C355.465 841 339.696 835.323 324.926 828.385C305.643 819.059 287.211 808.067 269.84 795.533C219.551 759.4 174.957 715.94 137.54 666.598C49.3405 551.223 -23.3534 376.821 7.97382 141.498C9.95476 126.399 16.1548 112.165 25.8617 100.431C35.5686 88.6974 48.3887 79.9397 62.8491 75.1644C113.06 58.7128 163.657 43.4653 214.597 29.435Z" fill="black"/>
<path d="M422.078 667.879V558.537L397.4 499.112C431.313 493.202 462.569 476.949 486.884 452.58C552.318 387.146 552.318 280.678 486.884 215.244C421.45 149.81 314.982 149.81 249.548 215.244C184.114 280.678 184.114 387.146 249.548 452.58C274.074 477.162 305.656 493.482 339.895 499.266L315.285 558.533L315.28 667.876C315.28 674.888 316.661 681.832 319.344 688.311C322.027 694.789 325.961 700.676 330.919 705.635C335.877 710.593 341.764 714.527 348.242 717.211C354.721 719.895 361.665 721.276 368.677 721.276C375.69 721.276 382.634 719.895 389.112 717.212C395.591 714.529 401.478 710.596 406.436 705.637C411.395 700.679 415.329 694.792 418.012 688.314C420.696 681.835 422.078 674.891 422.078 667.879ZM271.124 236.82C324.66 183.285 411.773 183.285 465.308 236.82C518.844 290.355 518.844 377.469 465.308 431.004C411.773 484.54 324.66 484.54 271.124 431.004C217.589 377.469 217.589 290.355 271.124 236.82ZM368.679 690.762C362.612 690.755 356.795 688.342 352.504 684.052C348.214 679.761 345.801 673.944 345.794 667.877V564.62L368.679 509.514L391.565 564.621L391.565 667.879C391.558 673.946 389.144 679.763 384.854 684.053C380.563 688.343 374.747 690.756 368.679 690.762Z" fill="black"/>
<path d="M368.5 232C371.981 232 375.319 233.382 377.781 235.842C380.242 238.301 381.625 241.638 381.625 245.116V350.047C381.625 353.525 380.242 356.861 377.781 359.321C375.319 361.781 371.981 363.163 368.5 363.163C365.019 363.163 361.681 361.781 359.219 359.321C356.758 356.861 355.375 353.525 355.375 350.047V245.116C355.375 241.638 356.758 238.301 359.219 235.842C361.681 233.382 365.019 232 368.5 232ZM368.5 420C373.141 420 377.593 418.157 380.874 414.878C384.156 411.598 386 407.15 386 402.512C386 397.873 384.156 393.425 380.874 390.146C377.593 386.866 373.141 385.023 368.5 385.023C363.859 385.023 359.408 386.866 356.126 390.146C352.844 393.425 351 397.873 351 402.512C351 407.15 352.844 411.598 356.126 414.878C359.408 418.157 363.859 420 368.5 420Z" fill="black"/>
</svg>
